<?xml version="1.0" encoding="UTF-8" standalone="no"?>
<svg
   xmlns:dc="http://purl.org/dc/elements/1.1/"
   xmlns:cc="http://creativecommons.org/ns#"
   xmlns:rdf="http://www.w3.org/1999/02/22-rdf-syntax-ns#"
   xmlns:svg="http://www.w3.org/2000/svg"
   xmlns="http://www.w3.org/2000/svg"
   id="svg32"
   version="1.1"
   style="overflow:visible"
   viewBox="-240 -198 480 405"
   height="1620px"
   width="1920px">
  <metadata
     id="metadata38">
    <rdf:RDF>
      <cc:Work
         rdf:about="">
        <dc:format>image/svg+xml</dc:format>
        <dc:type
           rdf:resource="http://purl.org/dc/dcmitype/StillImage" />
      </cc:Work>
    </rdf:RDF>
  </metadata>
  <defs
     id="defs36" />
  <rect
     id="rect2"
     fill-opacity="0"
     fill="rgb(0,0,0)"
     height="405"
     width="480"
     y="-198"
     x="-240" />
  <svg
     id="svg24"
     version="1.1"
     y="-250"
     x="-250"
     viewBox="-250 -250 500 500"
     height="500"
     width="500"
     style="overflow:visible">
    <g
       style="fill:#ffffff;stroke-linejoin:round"
       id="g22">
      <path
         style="fill:#364ea5;fill-opacity:1;stroke:none;stroke-linecap:butt;stroke-linejoin:round"
         id="path4"
         d="M -138.932,-31.957 -1e-6,-143.664 138.932,-31.957 v 207.395 h -277.878 z" />
      <path
         style="fill:#ffffff;fill-opacity:1;stroke:none;stroke-linecap:butt;stroke-linejoin:round"
         id="path6"
         d="m -40.888001,53.382999 h 81.7782 V 175.434 h -81.7782 z" />
      <path
         style="fill:#ffffff;fill-opacity:1;stroke:none;stroke-linecap:butt;stroke-linejoin:round"
         id="path8"
         d="m -40.888001,-56.492 h 34.0238 v 34.0701 h -34.0238 z" />
      <path
         style="fill:#ffffff;fill-opacity:1;stroke:none;stroke-linecap:butt;stroke-linejoin:round"
         id="path10"
         d="m 6.870999,-56.492 h 34.0238 v 34.0701 h -34.0238 z" />
      <path
         style="fill:#ffffff;fill-opacity:1;stroke:none;stroke-linecap:butt;stroke-linejoin:round"
         id="path12"
         d="m -40.888001,-8.674001 h 34.0238 v 34.0701 h -34.0238 z" />
      <path
         style="fill:#ffffff;fill-opacity:1;stroke:none;stroke-linecap:butt;stroke-linejoin:round"
         id="path14"
         d="m 6.870999,-8.674001 h 34.0238 v 34.0701 h -34.0238 z" />
      <path
         style="fill:#364ea5;fill-opacity:1;stroke:none;stroke-linecap:butt;stroke-linejoin:round"
         id="path16"
         d="m 33.586999,117.593 a 10.0554,10.065 0 0 1 -10.0554,10.065 10.0554,10.065 0 0 1 -10.0554,-10.065 10.0554,10.065 0 0 1 10.0554,-10.065 10.0554,10.065 0 0 1 10.0554,10.065 z" />
      <path
         style="fill:none;stroke:#364ea5;stroke-width:6;stroke-linecap:butt;stroke-linejoin:round;stroke-opacity:1"
         id="path18"
         d="M -138.932,-31.957 -1e-6,-143.664 138.932,-31.957 v 207.395 h -277.878 z" />
      <path
         style="fill:#364ea5;fill-opacity:1;stroke:#364ea5;stroke-width:6;stroke-linecap:butt;stroke-linejoin:round;stroke-opacity:1"
         id="path20"
         d="m 0,-175.4377 -195,150.479 26.6221,34.6421 168.378,-129.941 168.378,129.941 26.6221,-34.6421 z" />
    </g>
  </svg>
  <svg
     id="svg30"
     version="1.1"
     y="-351"
     x="-353"
     viewBox="-250 -250 500 500"
     height="500"
     width="500"
     style="overflow:visible">
    <g
       style="fill:#ffffff;stroke-linejoin:round"
       id="g28">
      <path
         style="fill:#364ea5;fill-opacity:1;stroke:#364ea5;stroke-width:6;stroke-linecap:butt;stroke-linejoin:round;stroke-opacity:1"
         id="path26"
         d="M -25.6,-70.4 H 25.6 V 70.4 h -51.2 z" />
    </g>
  </svg>
</svg>
